<svg width="193.92000732421872" height="56.23416016207079" viewBox="0 0 400.3636363636363 116.10000000000001" class="looka-1j8o68f"><defs id="SvgjsDefs1720"></defs><g id="SvgjsG1721" featurekey="symbolContainer" transform="matrix(0.9,0,0,0.9,0,0)" fill="#ffffff"><rect xmlns="http://www.w3.org/2000/svg" width="104" height="129" rx="10" ry="10"></rect></g><g id="SvgjsG1722" featurekey="monogramFeature-0" transform="matrix(2.0764554229879395,0,0,2.0764554229879395,8.76414985750797,-22.671433446349162)" fill="#000000"><path d="M33.481 45.89 c0.35144 2.0307 0.14543 4.1404 -0.53842 6.0588 c-0.67686 1.927 -1.861 3.6304 -3.3933 4.939 c-1.5286 1.3157 -3.3755 2.2729 -5.4132 2.8144 c-2.0389 0.53959 -4.2603 0.6711 -6.5322 0.27515 c-2.269 -0.37816 -4.5628 -1.3112 -6.576 -2.5715 c-1.9913 -1.2769 -3.8096 -2.7877 -4.9957 -4.43 c-0.59555 -0.82176 -1.057 -1.6874 -1.3264 -2.6255 c-0.27838 -0.93558 -0.31969 -1.9423 -0.096618 -2.9414 c0.136 -0.63372 0.46652 -1.2299 0.87264 -1.6214 c0.40992 -0.40108 0.87768 -0.6261 1.308 -0.67878 c0.87642 -0.10805 1.4363 0.41566 1.751 0.99534 c0.32666 0.59297 0.52752 1.2743 0.87774 1.6913 c0.33814 0.44742 0.74808 0.50209 0.81288 0.62094 c-0.027949 0.4684 0.10805 0.99144 0.3839 1.4027 c0.26631 0.42199 0.62922 0.77028 1.0106 1.0684 c0.77412 0.586 1.5737 1.0614 2.3707 1.4256 c1.5794 0.73914 3.2242 1.0016 4.6009 0.58283 c1.3601 -0.38894 2.4489 -1.4212 2.5982 -2.7133 c0.083262 -0.63048 -0.038144 -1.2775 -0.33498 -1.8266 c-0.28916 -0.5574 -0.81606 -0.9756 -1.3925 -1.1999 c-0.71436 -0.27586 -1.4656 -0.28219 -2.112 -0.25547 l-0.9165 0.055313 l-0.20912 0.012715 l-0.7506 -0.10805 l-0.39217 -0.058477 l-0.47098 -0.099138 c-0.31652 -0.0699 -0.62478 -0.13219 -0.9483 -0.21416 c-1.322 -0.35971 -2.7679 -0.89166 -4.2043 -1.7866 c-1.4993 -0.9336 -2.8105 -2.2137 -3.7867 -3.6037 c-1.9557 -2.8099 -2.8417 -6.0666 -2.6485 -9.4572 c0.099138 -1.6837 0.52371 -3.4645 1.2673 -5.0865 c0.72708 -1.6023 1.7256 -3.0336 2.8842 -4.2463 c2.3306 -2.4221 5.2517 -4.0384 8.5326 -4.7617 c0.41314 -0.084552 0.8313 -0.15445 1.2502 -0.22119 c0.42521 -0.04957 0.85296 -0.092814 1.2826 -0.12398 c0.43348 -0.01459 0.8739 -0.027305 1.3067 -0.020977 c0.42392 0.018457 0.85296 0.036269 1.2743 0.07758 c1.6887 0.16652 3.3158 0.58219 4.8304 1.1891 c3.0304 1.2222 5.6375 3.1684 7.6926 5.703 c0.64578 0.73728 0.17291 1.943 -1.001 3.0978 c-1.1637 1.1669 -2.991 2.2963 -4.8894 3.2922 s-3.8591 1.8914 -5.2892 2.59 c-1.4345 0.68388 -2.3364 1.2012 -2.3332 1.0741 c-0.12076 -0.38578 -0.43412 -0.80904 -0.73032 -1.0754 c-0.14807 -0.13664 -0.286 -0.24023 -0.40295 -0.32156 c-0.029238 -0.019688 -0.055957 -0.029883 -0.085194 -0.057188 c-0.022265 -0.01336 -0.038144 -0.02414 -0.059121 -0.04957 c-0.02543 -0.0089064 -0.052148 -0.021621 -0.081384 -0.043242 c-0.032402 -0.003164 -0.066096 -0.018398 -0.1036 -0.032988 c-0.30568 -0.083904 -0.78168 0.007617 -1.0677 0.12328 l-0.34066 0.13096 c-0.073068 0.0063282 -0.14742 0.007617 -0.22875 0.13535 c-0.1684 0.23197 -0.19002 0.7239 -0.16207 0.97686 c0.017168 0.136 -0.0063282 0.19764 0.0063864 0.28025 c0.07881 0.12521 0.3184 0.31969 0.72708 0.52559 l0.36926 0.14807 l0.18879 0.078162 l0.27709 0.0801 c0.19957 0.055313 0.33621 0.1036 0.58787 0.16523 l1.1434 0.22688 c1.5171 0.29871 3.0298 0.57961 4.3873 1.0214 c2.7749 0.8358 4.8653 2.1654 6.5802 3.9508 c0.31652 0.38894 0.65274 0.75504 0.91776 1.1936 l0.4214 0.63048 l0.35848 0.67434 c0.45445 0.9165 0.76272 1.9112 0.94128 2.9243 z"></path></g></svg>