<svg width="168.48001098632812" height="48.85690781803808" viewBox="0 0 400.3636363636363 116.10000000000001" class="looka-1j8o68f"><defs id="SvgjsDefs1720"></defs><g id="SvgjsG1721" featurekey="symbolContainer" transform="matrix(0.9,0,0,0.9,0,0)" fill="#ffffff"><rect xmlns="http://www.w3.org/2000/svg" width="104" height="129" rx="10" ry="10"></rect></g><g id="SvgjsG1722" featurekey="monogramFeature-0" transform="matrix(2.0764554229879395,0,0,2.0764554229879395,8.76414985750797,-22.671433446349162)" fill="#000000"><path d="M33.481 45.89 c0.35144 2.0307 0.14543 4.1404 -0.53842 6.0588 c-0.67686 1.927 -1.861 3.6304 -3.3933 4.939 c-1.5286 1.3157 -3.3755 2.2729 -5.4132 2.8144 c-2.0389 0.53959 -4.2603 0.6711 -6.5322 0.27515 c-2.269 -0.37816 -4.5628 -1.3112 -6.576 -2.5715 c-1.9913 -1.2769 -3.8096 -2.7877 -4.9957 -4.43 c-0.59555 -0.82176 -1.057 -1.6874 -1.3264 -2.6255 c-0.27838 -0.93558 -0.31969 -1.9423 -0.096618 -2.9414 c0.136 -0.63372 0.46652 -1.2299 0.87264 -1.6214 c0.40992 -0.40108 0.87768 -0.6261 1.308 -0.67878 c0.87642 -0.10805 1.4363 0.41566 1.751 0.99534 c0.32666 0.59297 0.52752 1.2743 0.87774 1.6913 c0.33814 0.44742 0.74808 0.50209 0.81288 0.62094 c-0.027949 0.4684 0.10805 0.99144 0.3839 1.4027 c0.26631 0.42199 0.62922 0.77028 1.0106 1.0684 c0.77412 0.586 1.5737 1.0614 2.3707 1.4256 c1.5794 0.73914 3.2242 1.0016 4.6009 0.58283 c1.3601 -0.38894 2.4489 -1.4212 2.5982 -2.7133 c0.083262 -0.63048 -0.038144 -1.2775 -0.33498 -1.8266 c-0.28916 -0.5574 -0.81606 -0.9756 -1.3925 -1.1999 c-0.71436 -0.27586 -1.4656 -0.28219 -2.112 -0.25547 l-0.9165 0.055313 l-0.20912 0.012715 l-0.7506 -0.10805 l-0.39217 -0.058477 l-0.47098 -0.099138 c-0.31652 -0.0699 -0.62478 -0.13219 -0.9483 -0.21416 c-1.322 -0.35971 -2.7679 -0.89166 -4.2043 -1.7866 c-1.4993 -0.9336 -2.8105 -2.2137 -3.7867 -3.6037 c-1.9557 -2.8099 -2.8417 -6.0666 -2.6485 -9.4572 c0.099138 -1.6837 0.52371 -3.4645 1.2673 -5.0865 c0.72708 -1.6023 1.7256 -3.0336 2.8842 -4.2463 c2.3306 -2.4221 5.2517 -4.0384 8.5326 -4.7617 c0.41314 -0.084552 0.8313 -0.15445 1.2502 -0.22119 c0.42521 -0.04957 0.85296 -0.092814 1.2826 -0.12398 c0.43348 -0.01459 0.8739 -0.027305 1.3067 -0.020977 c0.42392 0.018457 0.85296 0.036269 1.2743 0.07758 c1.6887 0.16652 3.3158 0.58219 4.8304 1.1891 c3.0304 1.2222 5.6375 3.1684 7.6926 5.703 c0.64578 0.73728 0.17291 1.943 -1.001 3.0978 c-1.1637 1.1669 -2.991 2.2963 -4.8894 3.2922 s-3.8591 1.8914 -5.2892 2.59 c-1.4345 0.68388 -2.3364 1.2012 -2.3332 1.0741 c-0.12076 -0.38578 -0.43412 -0.80904 -0.73032 -1.0754 c-0.14807 -0.13664 -0.286 -0.24023 -0.40295 -0.32156 c-0.029238 -0.019688 -0.055957 -0.029883 -0.085194 -0.057188 c-0.022265 -0.01336 -0.038144 -0.02414 -0.059121 -0.04957 c-0.02543 -0.0089064 -0.052148 -0.021621 -0.081384 -0.043242 c-0.032402 -0.003164 -0.066096 -0.018398 -0.1036 -0.032988 c-0.30568 -0.083904 -0.78168 0.007617 -1.0677 0.12328 l-0.34066 0.13096 c-0.073068 0.0063282 -0.14742 0.007617 -0.22875 0.13535 c-0.1684 0.23197 -0.19002 0.7239 -0.16207 0.97686 c0.017168 0.136 -0.0063282 0.19764 0.0063864 0.28025 c0.07881 0.12521 0.3184 0.31969 0.72708 0.52559 l0.36926 0.14807 l0.18879 0.078162 l0.27709 0.0801 c0.19957 0.055313 0.33621 0.1036 0.58787 0.16523 l1.1434 0.22688 c1.5171 0.29871 3.0298 0.57961 4.3873 1.0214 c2.7749 0.8358 4.8653 2.1654 6.5802 3.9508 c0.31652 0.38894 0.65274 0.75504 0.91776 1.1936 l0.4214 0.63048 l0.35848 0.67434 c0.45445 0.9165 0.76272 1.9112 0.94128 2.9243 z"></path></g><g id="SvgjsG1723" featurekey="nameFeature-0" transform="matrix(2.0125439471145676,0,0,2.0125439471145676,111.5853468641112,5.8492730262319945)" fill="#ffffff"><path d="M15.543 27.509999999999998 c3.4434 0 6.2452 2.8016 6.2452 6.2452 s-2.8016 6.2452 -6.2452 6.2452 l-8.098 0 c-1.2128 0 -2.196 -0.98328 -2.196 -2.196 s0.98328 -2.196 2.196 -2.196 l8.098 0 c1.0217 0 1.8529 -0.8312 1.8529 -1.8529 s-0.8312 -1.8529 -1.8529 -1.8529 l-8.098 0 c-3.4434 0 -6.2452 -2.8016 -6.2452 -6.2452 s2.8016 -6.2452 6.2452 -6.2452 l8.098 0 c1.2128 0 2.196 0.98328 2.196 2.196 s-0.98328 2.196 -2.196 2.196 l-8.098 0 c-1.0217 0 -1.8529 0.8312 -1.8529 1.8529 s0.8312 1.8529 1.8529 1.8529 l8.098 0 z M36.706 29.733 l6.518 6.518 c0.85784 0.85756 0.85784 2.248 0 3.1056 c-0.4288 0.4288 -0.99072 0.64316 -1.5529 0.64316 s-1.1241 -0.21438 -1.5529 -0.64316 l-6.5176 -6.5176 l-6.5176 6.5176 c-0.42028 0.42 -0.98192 0.64316 -1.5534 0.64316 c-0.28301 0 -0.56824 -0.054608 -0.84 -0.16715 c-0.82052 -0.33984 -1.3555 -1.1406 -1.3555 -2.0289 l0 -23.606 c0 -1.2128 0.98328 -2.196 2.196 -2.196 s2.196 0.98328 2.196 2.196 l0 18.305 l12.392 -12.392 c0.85756 -0.85756 2.248 -0.85756 3.1056 0 c0.85784 0.85756 0.85784 2.248 0 3.1056 z M47.984 19.412 c1.2128 0 2.196 0.98328 2.196 2.196 l0 16.196 c0 1.2128 -0.98328 2.196 -2.196 2.196 s-2.196 -0.98328 -2.196 -2.196 l0 -16.196 c0 -1.2128 0.98328 -2.196 2.196 -2.196 z M45.955400000000004 15.036000000000001 c-0.054884 -0.13176 -0.096056 -0.2718 -0.12352 -0.4118 c-0.030195 -0.14 -0.043908 -0.28551 -0.043908 -0.42824 s0.013711 -0.28824 0.043908 -0.42824 c0.027461 -0.14 0.068632 -0.28 0.12352 -0.41176 s0.12352 -0.26078 0.20312 -0.37883 c0.079608 -0.12078 0.1702 -0.23332 0.27176 -0.33488 s0.2141 -0.19215 0.33488 -0.27176 c0.11805 -0.079608 0.24707 -0.14824 0.37883 -0.20312 s0.27176 -0.096056 0.41176 -0.12352 c0.71372 -0.14551 1.4714 0.090588 1.982 0.59844 c0.098828 0.10156 0.19215 0.2141 0.27176 0.33488 c0.079608 0.11805 0.14824 0.24707 0.20312 0.37883 s0.096056 0.27176 0.12352 0.41176 c0.030195 0.14 0.043908 0.28551 0.043908 0.42824 s-0.013711 0.28824 -0.043908 0.42824 c-0.027461 0.14 -0.068632 0.28 -0.12352 0.41176 s-0.12352 0.26078 -0.20312 0.37883 c-0.079608 0.12078 -0.17293 0.23332 -0.27176 0.33488 c-0.10156 0.10156 -0.2141 0.19215 -0.33488 0.27176 c-0.11805 0.079608 -0.24707 0.14824 -0.37883 0.20312 s-0.27176 0.096056 -0.41176 0.12352 c-0.14 0.030195 -0.28551 0.043908 -0.42824 0.043908 s-0.28824 -0.013711 -0.42824 -0.043908 c-0.14 -0.027461 -0.28 -0.068632 -0.41176 -0.12352 s-0.26078 -0.12352 -0.37883 -0.20312 c-0.12078 -0.079608 -0.23332 -0.1702 -0.33488 -0.27176 s-0.19215 -0.2141 -0.27176 -0.33488 c-0.079608 -0.11805 -0.14824 -0.24707 -0.20312 -0.37883 z M62.621 35.608 c1.2128 0 2.1961 0.98332 2.1961 2.1961 s-0.98328 2.196 -2.196 2.196 c-5.7668 0 -10.459 -4.692 -10.459 -10.459 l0 -15.345 c0 -1.2128 0.98328 -2.196 2.196 -2.196 s2.196 0.98328 2.196 2.196 l0 15.345 c0 3.3452 2.7215 6.0668 6.0668 6.0668 z M75.235 35.608 c1.2128 0 2.1961 0.98332 2.1961 2.1961 s-0.98328 2.196 -2.196 2.196 c-5.7668 0 -10.459 -4.692 -10.459 -10.459 l0 -15.345 c0 -1.2128 0.98328 -2.196 2.196 -2.196 s2.196 0.98328 2.196 2.196 l0 15.345 c0 3.3452 2.7215 6.0668 6.0668 6.0668 z M108.71600000000001 19.412 c1.2128 0 2.196 0.98328 2.196 2.196 l0 16.196 c0 1.2128 -0.98328 2.196 -2.196 2.196 c-1.1071 0 -2.0201 -0.81968 -2.1716 -1.885 c-1.677 1.1856 -3.721 1.885 -5.9264 1.885 c-5.6764 0 -10.294 -4.6176 -10.294 -10.294 s4.6176 -10.294 10.294 -10.294 c2.2054 0 4.2492 0.69944 5.9264 1.885 c0.15152 -1.0654 1.0645 -1.885 2.1716 -1.885 z M100.61800000000001 35.608 c3.2543 0 5.902 -2.6476 5.902 -5.902 s-2.6476 -5.902 -5.902 -5.902 s-5.902 2.6476 -5.902 5.902 s2.6476 5.902 5.902 5.902 z M123.15200000000002 19.412 c1.2128 0 2.196 0.98328 2.196 2.196 s-0.98328 2.196 -2.196 2.196 c-3.2543 0 -5.902 2.6476 -5.902 5.902 l0 8.098 c0 1.2128 -0.98328 2.196 -2.196 2.196 s-2.196 -0.98328 -2.196 -2.196 l0 -16.196 c0 -1.2128 0.98328 -2.196 2.196 -2.196 c1.1071 0 2.0201 0.81996 2.1716 1.885 c1.677 -1.1856 3.721 -1.885 5.9264 -1.885 z M139.74 33.8792 c0.85756 -0.85756 2.2482 -0.85772 3.1058 0.00011719 c0.85784 0.85756 0.85784 2.248 0 3.1056 c-1.9443 1.9443 -4.5292 3.0149 -7.2792 3.0149 c-5.6764 0 -10.294 -4.6176 -10.294 -10.294 s4.6176 -10.294 10.294 -10.294 c2.7498 0 5.3348 1.0706 7.2788 3.0152 c0.85784 0.85756 0.85784 2.248 0 3.1056 c-0.85756 0.85756 -2.248 0.85756 -3.1056 0 c-1.1145 -1.1148 -2.5968 -1.7286 -4.1732 -1.7286 c-3.2543 0 -5.902 2.6476 -5.902 5.902 s2.6476 5.902 5.902 5.902 c1.5765 0 3.0586 -0.6138 4.1732 -1.7286 z"></path></g></svg>